<svg width="34" height="46" viewBox="0 0 34 46" fill="none" xmlns="http://www.w3.org/2000/svg">
<g clip-path="url(#clip0_1_1599)">
<path d="M15.3887 0.494336C16.3627 -0.161523 17.6377 -0.161523 18.6116 0.494336L20.1877 1.54551C20.7189 1.8959 21.3387 2.0666 21.9674 2.03066L23.8533 1.91387C25.0221 1.84199 26.12 2.48887 26.6424 3.54902L27.4924 5.26504C27.7757 5.84004 28.2361 6.29824 28.7939 6.58574L30.5028 7.45723C31.5476 7.9873 32.1851 9.10137 32.1143 10.2873L31.9991 12.201C31.9637 12.8389 32.132 13.4768 32.4773 14.0068L33.5221 15.6061C34.1684 16.5943 34.1684 17.8881 33.5221 18.8764L32.4773 20.4846C32.132 21.0236 31.9637 21.6525 31.9991 22.2904L32.1143 24.2041C32.1851 25.39 31.5476 26.5041 30.5028 27.0342L28.8116 27.8967C28.245 28.1842 27.7934 28.6514 27.5101 29.2174L26.6512 30.9514C26.1288 32.0115 25.0309 32.6584 23.8622 32.5865L21.9762 32.4697C21.3476 32.4338 20.7189 32.6045 20.1965 32.9549L18.6205 34.015C17.6465 34.6709 16.3715 34.6709 15.3976 34.015L13.8127 32.9549C13.2814 32.6045 12.6616 32.4338 12.033 32.4697L10.1471 32.5865C8.97831 32.6584 7.88039 32.0115 7.358 30.9514L6.508 29.2354C6.22467 28.6604 5.76425 28.2022 5.20644 27.9146L3.49758 27.0432C2.45279 26.5131 1.81529 25.399 1.88612 24.2131L2.00123 22.2994C2.03664 21.6615 1.86841 21.0236 1.5231 20.4936L0.487164 18.8854C-0.15919 17.8971 -0.15919 16.6033 0.487164 15.615L1.5231 14.0158C1.86841 13.4768 2.03664 12.8479 2.00123 12.21L1.88612 10.2963C1.81529 9.11035 2.45279 7.99629 3.49758 7.46621L5.18873 6.60371C5.75539 6.30723 6.21581 5.84004 6.49914 5.26504L7.34914 3.54902C7.87154 2.48887 8.96946 1.84199 10.1382 1.91387L12.0241 2.03066C12.6528 2.0666 13.2814 1.8959 13.8038 1.54551L15.3887 0.494336ZM24.0835 17.2502C24.0835 15.344 23.3372 13.5158 22.0089 12.1679C20.6805 10.8199 18.8788 10.0627 17.0002 10.0627C15.1216 10.0627 13.3199 10.8199 11.9915 12.1679C10.6631 13.5158 9.91685 15.344 9.91685 17.2502C9.91685 19.1564 10.6631 20.9846 11.9915 22.3325C13.3199 23.6804 15.1216 24.4377 17.0002 24.4377C18.8788 24.4377 20.6805 23.6804 22.0089 22.3325C23.3372 20.9846 24.0835 19.1564 24.0835 17.2502ZM0.115289 39.6932L3.93144 30.4842C3.94914 30.4932 3.958 30.5021 3.96685 30.5201L4.81685 32.2361C5.85279 34.3205 8.00435 35.5873 10.3064 35.4525L12.1924 35.3357C12.2101 35.3357 12.2366 35.3357 12.2544 35.3537L13.8304 36.4139C14.282 36.7104 14.7601 36.9439 15.2559 37.1057L11.9267 45.1287C11.7231 45.6229 11.2715 45.9553 10.7491 46.0002C10.2267 46.0451 9.72206 45.8025 9.43873 45.3533L6.58769 40.924L1.6205 41.6697C1.11581 41.7416 0.611123 41.535 0.292373 41.1307C-0.0263773 40.7264 -0.0883565 40.1693 0.106435 39.6932H0.115289ZM22.0736 45.1197L18.7445 37.1057C19.2403 36.9439 19.7184 36.7193 20.17 36.4139L21.746 35.3537C21.7637 35.3447 21.7814 35.3357 21.808 35.3357L23.6939 35.4525C25.996 35.5873 28.1476 34.3205 29.1835 32.2361L30.0335 30.5201C30.0424 30.5021 30.0512 30.4932 30.0689 30.4842L33.8939 39.6932C34.0887 40.1693 34.0179 40.7174 33.708 41.1307C33.3981 41.5439 32.8846 41.7506 32.3799 41.6697L27.4127 40.924L24.5616 45.3443C24.2783 45.7936 23.7736 46.0361 23.2512 45.9912C22.7288 45.9463 22.2773 45.6049 22.0736 45.1197Z" fill="black"/>
</g>
<defs>
<clipPath id="clip0_1_1599">
<rect width="34" height="46" fill="white"/>
</clipPath>
</defs>
</svg>
