<svg width="32" height="32" viewBox="0 0 32 32" fill="none" xmlns="http://www.w3.org/2000/svg">
<path d="M8.82141 28C8.22408 28 7.71564 27.7902 7.29608 27.3707C6.87653 26.9511 6.66675 26.4431 6.66675 25.8467V14.1533C6.66675 13.5578 6.87653 13.0498 7.29608 12.6293C7.71564 12.2098 8.22408 12 8.82141 12H10.6667V9.33333C10.6667 7.848 11.1845 6.588 12.2201 5.55333C13.2547 4.51778 14.5147 4 16.0001 4C17.4854 4 18.7459 4.51778 19.7814 5.55333C20.817 6.58889 21.3343 7.84889 21.3334 9.33333V12H23.1801C23.7756 12 24.2836 12.2098 24.7041 12.6293C25.1236 13.0489 25.3334 13.5573 25.3334 14.1547V25.8467C25.3334 26.4422 25.1236 26.9502 24.7041 27.3707C24.2845 27.7902 23.7765 28 23.1801 28H8.82141ZM8.82141 26.6667H23.1801C23.4192 26.6667 23.6156 26.5898 23.7694 26.436C23.9232 26.2822 24.0001 26.0858 24.0001 25.8467V14.1533C24.0001 13.9142 23.9232 13.7178 23.7694 13.564C23.6156 13.4102 23.4192 13.3333 23.1801 13.3333H8.82008C8.58097 13.3333 8.38453 13.4102 8.23075 13.564C8.07697 13.7178 8.00008 13.9147 8.00008 14.1547V25.8467C8.00008 26.0858 8.07697 26.2822 8.23075 26.436C8.38453 26.5898 8.58141 26.6667 8.82141 26.6667ZM16.0001 22C16.5627 22 17.0365 21.8071 17.4214 21.4213C17.8072 21.0364 18.0001 20.5627 18.0001 20C18.0001 19.4373 17.8072 18.9636 17.4214 18.5787C17.0356 18.1938 16.5619 18.0009 16.0001 18C15.4383 17.9991 14.9645 18.192 14.5787 18.5787C14.193 18.9636 14.0001 19.4373 14.0001 20C14.0001 20.5627 14.193 21.0364 14.5787 21.4213C14.9636 21.8071 15.4374 22 16.0001 22ZM12.0001 12H20.0001V9.33333C20.0001 8.22222 19.6112 7.27778 18.8334 6.5C18.0556 5.72222 17.1112 5.33333 16.0001 5.33333C14.889 5.33333 13.9445 5.72222 13.1667 6.5C12.389 7.27778 12.0001 8.22222 12.0001 9.33333V12Z" fill="#F8F8F8"/>
</svg>
