<svg width="31" height="31" viewBox="0 0 31 31" fill="none" xmlns="http://www.w3.org/2000/svg">
<g clip-path="url(#clip0_1_1575)">
<path d="M12.2682 7.4825C14.1024 5.02317 16.8601 4.305 19.3969 4.99604C22.1352 5.74133 24.5429 8.09346 25.3425 11.3691C25.3838 11.537 25.42 11.705 25.4497 11.8729C24.2954 11.4619 23.0401 11.4302 21.8666 11.7825C20.2042 10.5528 18.1453 10.3461 16.315 11.0204C14.0223 11.8664 12.232 14.0119 11.8174 16.7115C11.2878 20.168 13.3932 23.2731 16.3705 25.9133L16.8717 26.3473C16.4674 26.3757 16.0567 26.3124 15.664 26.2285C15.4622 26.1853 15.2615 26.1371 15.0621 26.0838L14.3685 25.89C8.20204 24.1553 4.07387 21.4415 2.88941 17.3857C1.94391 14.1488 2.85325 10.908 4.85275 8.893C6.705 7.02654 9.45108 6.26963 12.2682 7.4825ZM14.371 17.1028C14.9239 13.4965 19.0947 11.7192 21.2362 14.814C21.2568 14.8428 21.2878 14.8623 21.3226 14.8683C21.3574 14.8744 21.3932 14.8665 21.4222 14.8463C24.4925 12.6711 27.8031 15.7673 27.0888 19.3452C26.6755 21.4196 24.7509 23.1427 21.315 24.5118L20.7532 24.7314L20.4135 24.8709C20.1202 24.9859 19.8102 25.0776 19.53 25.0285C19.251 24.9794 18.9913 24.7857 18.755 24.579L18.3545 24.2173C15.3669 21.6456 14.0391 19.2741 14.371 17.1028Z" fill="#F8F8F8"/>
</g>
<defs>
<clipPath id="clip0_1_1575">
<rect width="31" height="31" fill="white"/>
</clipPath>
</defs>
</svg>
