<svg width="20" height="31" viewBox="0 0 20 31" fill="none" xmlns="http://www.w3.org/2000/svg">
<path d="M10.0006 23.9022V16.6144M10.0006 16.6144C10.6078 16.6151 11.2126 16.5269 11.8006 16.352M10.0006 16.6144C9.39344 16.6151 8.78864 16.5269 8.2006 16.352M12.7006 26.7327C10.9164 27.1233 9.08477 27.1233 7.3006 26.7327M11.8006 30.0407C10.6039 30.1856 9.39733 30.1856 8.2006 30.0407M12.7006 23.9022V23.6357C12.7006 22.2711 13.4902 21.1051 14.5102 20.4207C16.2238 19.2728 17.5623 17.5031 18.3183 15.3859C19.0743 13.2687 19.2056 10.9222 18.6918 8.70999C18.178 6.49774 17.0479 4.54325 15.4765 3.14936C13.9051 1.75547 11.9802 1 10 1C8.0198 1 6.09488 1.75547 4.52349 3.14936C2.95209 4.54325 1.82196 6.49774 1.3082 8.70999C0.794432 10.9222 0.925717 13.2687 1.68171 15.3859C2.4377 17.5031 3.7762 19.2728 5.4898 20.4207C6.5098 21.1051 7.3006 22.2711 7.3006 23.6357V23.9022" stroke="#F8F8F8" stroke-width="1.5" stroke-linecap="round" stroke-linejoin="round"/>
</svg>
