<svg width="28" height="28" viewBox="0 0 28 28" fill="none" xmlns="http://www.w3.org/2000/svg">
<path d="M5.27726 28C4.65325 28 4.1338 27.7845 3.71891 27.3536C3.30402 26.9226 3.09657 26.3467 3.09657 25.6259C3.09657 25.1212 3.22126 24.6812 3.47064 24.3059C3.72003 23.9306 4.03874 23.651 4.42679 23.4673L11.4838 20.2352V12.9556C9.60508 15.5051 7.89128 17.3492 6.34244 18.4881C4.79359 19.6269 2.98698 20.3762 0.922598 20.736C0.683281 20.7748 0.469686 20.7017 0.281812 20.5166C0.0939372 20.3316 0 20.1006 0 19.8236C0 19.5221 0.0838723 19.2769 0.251617 19.0879C0.419362 18.899 0.632958 18.7844 0.892403 18.7443C2.40882 18.4855 3.84248 17.9044 5.19339 17.0011C6.54429 16.0978 7.79343 14.8813 8.94081 13.3516L11.2054 10.3195C11.4559 9.99076 11.7505 9.73193 12.0894 9.54298C12.4282 9.35404 12.7855 9.25957 13.1613 9.25957H14.8387C15.2122 9.25957 15.569 9.35404 15.9089 9.54298C16.2489 9.73193 16.5436 9.99076 16.793 10.3195L19.0575 13.3516C20.206 14.8813 21.4557 16.0978 22.8066 17.0011C24.1575 17.9057 25.5906 18.4874 27.1059 18.7463C27.3665 18.7851 27.5806 18.899 27.7484 19.0879C27.9161 19.2781 28 19.524 28 19.8256C28 20.1012 27.9061 20.3316 27.7182 20.5166C27.5292 20.7017 27.3156 20.7748 27.0774 20.736C25.013 20.3775 23.207 19.6289 21.6592 18.49C20.1104 17.3512 18.396 15.5064 16.5162 12.9556V20.2352L23.5749 23.4673C23.9618 23.6523 24.28 23.9319 24.5294 24.3059C24.7787 24.6799 24.9034 25.1199 24.9034 25.6259C24.9034 26.3467 24.696 26.9226 24.2811 27.3536C23.8662 27.7845 23.3468 28 22.7227 28H10.6451V27.7011C10.6451 26.9336 10.8347 26.3312 11.2138 25.8938C11.5929 25.4564 12.1129 25.2377 12.7738 25.2377H18.1936C18.4452 25.2377 18.6482 25.1484 18.8025 24.9698C18.9569 24.7912 19.0335 24.5563 19.0323 24.2651C19.0312 23.9739 18.9546 23.7397 18.8025 23.5624C18.6504 23.3851 18.4475 23.2964 18.1936 23.2964H12.7755C11.665 23.2964 10.7525 23.7093 10.0379 24.5349C9.32327 25.3606 8.96653 26.4153 8.96765 27.6991V28H5.27726ZM14 6.57099C13.206 6.57099 12.5345 6.25328 11.9854 5.61786C11.4363 4.98114 11.1618 4.20401 11.1618 3.28647C11.1618 2.36892 11.4363 1.59179 11.9854 0.955075C12.5345 0.318358 13.206 0 14 0C14.794 0 15.4655 0.318358 16.0146 0.955075C16.5637 1.59179 16.8382 2.36892 16.8382 3.28647C16.8382 4.20401 16.5637 4.98114 16.0146 5.61786C15.4644 6.25328 14.7929 6.57099 14 6.57099Z" fill="#F8F8F8"/>
</svg>
